#tb 0: 1/25
#media_type 0: video
#codec_id 0: rawvideo
#dimensions 0: 352x288
#sar 0: 0/1
0,          0,          0,        1,   152064, 0x712a2ad3
0,          1,          1,        1,   152064, 0x83420c9d
0,          2,          2,        1,   152064, 0xf3d77f46
0,          3,          3,        1,   152064, 0x67eab1a2
0,          4,          4,        1,   152064, 0x41df4534
0,          5,          5,        1,   152064, 0x68f268ce
0,          6,          6,        1,   152064, 0x288debdf
0,          7,          7,        1,   152064, 0x46ae56a7
0,          8,          8,        1,   152064, 0x1720f327
0,          9,          9,        1,   152064, 0x64752592
0,         10,         10,        1,   152064, 0x43e17a27
0,         11,         11,        1,   152064, 0x39f7cc52
0,         12,         12,        1,   152064, 0xc19a785c
0,         13,         13,        1,   152064, 0x562df0d4
0,         14,         14,        1,   152064, 0x50c96da0
0,         15,         15,        1,   152064, 0x1da8bdb5
0,         16,         16,        1,   152064, 0x02ddfb59
0,         17,         17,        1,   152064, 0x4d0c3e0e
0,         18,         18,        1,   152064, 0x1605371b
0,         19,         19,        1,   152064, 0x9772464d
0,         20,         20,        1,   152064, 0xc603441c
0,         21,         21,        1,   152064, 0xf9581917
0,         22,         22,        1,   152064, 0x4dbf74af
0,         23,         23,        1,   152064, 0x04b8b820
0,         24,         24,        1,   152064, 0x75061cdf
0,         25,         25,        1,   152064, 0x760bea90
0,         26,         26,        1,   152064, 0x7114cab3
0,         27,         27,        1,   152064, 0x89e14328
0,         28,         28,        1,   152064, 0x402ba116
0,         29,         29,        1,   152064, 0x8af2ccc6
0,         30,         30,        1,   152064, 0x1294333a
0,         31,         31,        1,   152064, 0xe466aa9f
0,         32,         32,        1,   152064, 0x7ce28426
0,         33,         33,        1,   152064, 0x21c16487
0,         34,         34,        1,   152064, 0xde3d5fc9
0,         35,         35,        1,   152064, 0x58cb2906
0,         36,         36,        1,   152064, 0x1df514ec
0,         37,         37,        1,   152064, 0x7e45bfb6
0,         38,         38,        1,   152064, 0xcdaaafc0
0,         39,         39,        1,   152064, 0x70a58eac
0,         40,         40,        1,   152064, 0xca7263b0
0,         41,         41,        1,   152064, 0x022621e0
0,         42,         42,        1,   152064, 0x938901c2
0,         43,         43,        1,   152064, 0x8c099e47
0,         44,         44,        1,   152064, 0xebfecda0
0,         45,         45,        1,   152064, 0x5a3aff71
0,         46,         46,        1,   152064, 0xb47c6692
0,         47,         47,        1,   152064, 0xde04b626
0,         48,         48,        1,   152064, 0xb1c61c94
0,         49,         49,        1,   152064, 0xbcc7eb35
0,         50,         50,        1,   152064, 0x801b958d
0,         51,         51,        1,   152064, 0xf5254f5d
0,         52,         52,        1,   152064, 0x4336da49
0,         53,         53,        1,   152064, 0x3139bcaf
0,         54,         54,        1,   152064, 0xb8359026
0,         55,         55,        1,   152064, 0xb6d39756
0,         56,         56,        1,   152064, 0xdf5c1c14
0,         57,         57,        1,   152064, 0x3f587336
0,         58,         58,        1,   152064, 0x105eeb74
0,         59,         59,        1,   152064, 0xffe23c19
0,         60,         60,        1,   152064, 0xfb1a1c5e
0,         61,         61,        1,   152064, 0xb8edb942
0,         62,         62,        1,   152064, 0x7ca92b27
0,         63,         63,        1,   152064, 0xd2fe1e24
0,         64,         64,        1,   152064, 0xd6b8939a
0,         65,         65,        1,   152064, 0xd59743da
0,         66,         66,        1,   152064, 0x005d9e7a
0,         67,         67,        1,   152064, 0x4c5cb03e
0,         68,         68,        1,   152064, 0x4a7c363a
0,         69,         69,        1,   152064, 0x627c88a8
0,         70,         70,        1,   152064, 0x3fcd8650
0,         71,         71,        1,   152064, 0x75b7f0b3
0,         72,         72,        1,   152064, 0xcbb95a00
0,         73,         73,        1,   152064, 0xc9871783
0,         74,         74,        1,   152064, 0xe9c2b471
0,         75,         75,        1,   152064, 0x513f0eb3
0,         76,         76,        1,   152064, 0x5a5c4fdc
0,         77,         77,        1,   152064, 0xdc8cbab6
0,         78,         78,        1,   152064, 0x86fe75d2
0,         79,         79,        1,   152064, 0xa6d52ce2
0,         80,         80,        1,   152064, 0xde74a975
0,         81,         81,        1,   152064, 0xc1bf3ef2
0,         82,         82,        1,   152064, 0xa1a1b832
0,         83,         83,        1,   152064, 0x0b23f718
0,         84,         84,        1,   152064, 0x842eed85
0,         85,         85,        1,   152064, 0xda96923b
0,         86,         86,        1,   152064, 0x7d011f83
0,         87,         87,        1,   152064, 0x26a25528
0,         88,         88,        1,   152064, 0x117b7971
0,         89,         89,        1,   152064, 0x3f17b29d
0,         90,         90,        1,   152064, 0x428654c0
0,         91,         91,        1,   152064, 0xc2343316
0,         92,         92,        1,   152064, 0x284371fe
0,         93,         93,        1,   152064, 0x388ef972
0,         94,         94,        1,   152064, 0x5f046560
0,         95,         95,        1,   152064, 0x6e9ac7e9
0,         96,         96,        1,   152064, 0x0cd6277c
0,         97,         97,        1,   152064, 0xfc7ba0b1
0,         98,         98,        1,   152064, 0x4d840475
0,         99,         99,        1,   152064, 0xd4cb26a6
